<?xml version="1.0" encoding="UTF-8"?><svg xmlns="http://www.w3.org/2000/svg" xmlns:xlink="http://www.w3.org/1999/xlink" fill-opacity="1" color-rendering="auto" color-interpolation="auto" text-rendering="auto" stroke="black" stroke-linecap="square" width="702" stroke-miterlimit="10" shape-rendering="auto" stroke-opacity="1" fill="black" stroke-dasharray="none" font-weight="normal" stroke-width="1" height="399" font-family="'Dialog'" font-style="normal" stroke-linejoin="miter" font-size="12px" stroke-dashoffset="0" image-rendering="auto">
  <!--Generated by ySVG 2.6-->
  <defs id="genericDefs"/>
  <g>
    <defs id="defs1">
      <linearGradient x1="687.3786" gradientUnits="userSpaceOnUse" x2="767.3786" y1="308.0489" y2="348.0489" id="linearGradient1" spreadMethod="reflect">
        <stop stop-opacity="1" stop-color="rgb(232,238,247)" offset="0%"/>
        <stop stop-opacity="1" stop-color="rgb(183,201,227)" offset="100%"/>
      </linearGradient>
      <linearGradient x1="510.7253" gradientUnits="userSpaceOnUse" x2="645.2253" y1="410.517" y2="440.517" id="linearGradient2" spreadMethod="reflect">
        <stop stop-opacity="1" stop-color="rgb(51,153,102)" offset="0%"/>
        <stop stop-opacity="1" stop-color="rgb(183,201,227)" offset="100%"/>
      </linearGradient>
      <linearGradient x1="828.0517" gradientUnits="userSpaceOnUse" x2="967.5125" y1="410.517" y2="440.517" id="linearGradient3" spreadMethod="reflect">
        <stop stop-opacity="1" stop-color="red" offset="0%"/>
        <stop stop-opacity="1" stop-color="rgb(183,201,227)" offset="100%"/>
      </linearGradient>
      <clipPath clipPathUnits="userSpaceOnUse" id="clipPath1">
        <path d="M0 0 L702 0 L702 399 L0 399 L0 0 Z"/>
      </clipPath>
      <clipPath clipPathUnits="userSpaceOnUse" id="clipPath2">
        <path d="M399 57 L1101 57 L1101 456 L399 456 L399 57 Z"/>
      </clipPath>
    </defs>
    <g fill="white" text-rendering="geometricPrecision" shape-rendering="geometricPrecision" transform="translate(-399,-57)" stroke="white">
      <rect x="399" width="702" height="399" y="57" clip-path="url(#clipPath2)" stroke="none"/>
    </g>
    <g fill="rgb(255,204,0)" text-rendering="geometricPrecision" shape-rendering="geometricPrecision" transform="matrix(1,0,0,1,-399,-57)" stroke="rgb(255,204,0)">
      <path d="M480.995 163.0489 L620.4557 163.0489 L585.5905 218.0489 L515.8602 218.0489 Z" fill-rule="evenodd" clip-path="url(#clipPath2)" stroke="none"/>
    </g>
    <g text-rendering="geometricPrecision" stroke-miterlimit="1.45" shape-rendering="geometricPrecision" transform="matrix(1,0,0,1,-399,-57)" stroke-linecap="butt">
      <path fill="none" d="M480.995 163.0489 L620.4557 163.0489 L585.5905 218.0489 L515.8602 218.0489 Z" fill-rule="evenodd" clip-path="url(#clipPath2)"/>
      <text x="511.7611" xml:space="preserve" y="195.2049" clip-path="url(#clipPath2)" font-family="sans-serif" stroke="none">Hash funtzioa</text>
    </g>
    <g fill="rgb(153,204,255)" text-rendering="geometricPrecision" shape-rendering="geometricPrecision" transform="matrix(1,0,0,1,-399,-57)" stroke="rgb(153,204,255)">
      <rect x="438.925" width="223.6006" height="30" y="248.0489" clip-path="url(#clipPath2)" stroke="none"/>
    </g>
    <g text-rendering="geometricPrecision" stroke-miterlimit="1.45" shape-rendering="geometricPrecision" transform="matrix(1,0,0,1,-399,-57)" stroke-linecap="butt">
      <rect fill="none" x="438.925" width="223.6006" height="30" y="248.0489" clip-path="url(#clipPath2)"/>
      <text x="452.4867" xml:space="preserve" y="267.7049" clip-path="url(#clipPath2)" font-family="sans-serif" stroke="none">5bf6722He/2SelP246190#452Pw32</text>
    </g>
    <g fill="rgb(153,204,255)" text-rendering="geometricPrecision" shape-rendering="geometricPrecision" transform="matrix(1,0,0,1,-399,-57)" stroke="rgb(153,204,255)">
      <rect x="792.2316" width="223.6006" height="30" y="248.0489" clip-path="url(#clipPath2)" stroke="none"/>
    </g>
    <g text-rendering="geometricPrecision" stroke-miterlimit="1.45" shape-rendering="geometricPrecision" transform="matrix(1,0,0,1,-399,-57)" stroke-linecap="butt">
      <rect fill="none" x="792.2316" width="223.6006" height="30" y="248.0489" clip-path="url(#clipPath2)"/>
      <text x="812.7473" xml:space="preserve" y="267.7049" clip-path="url(#clipPath2)" font-family="sans-serif" stroke="none">hasejjkjjk333458488/#2wqedddf</text>
    </g>
    <g fill="url(#linearGradient1)" text-rendering="geometricPrecision" shape-rendering="geometricPrecision" transform="matrix(1,0,0,1,-399,-57)" stroke="url(#linearGradient1)">
      <path d="M727.3786 308.0489 L767.3786 328.0489 L727.3786 348.0489 L687.3786 328.0489 Z" stroke="none" clip-path="url(#clipPath2)"/>
    </g>
    <g text-rendering="geometricPrecision" stroke-miterlimit="1.45" shape-rendering="geometricPrecision" transform="matrix(1,0,0,1,-399,-57)" stroke-linecap="butt">
      <path fill="none" d="M727.3786 308.0489 L767.3786 328.0489 L727.3786 348.0489 L687.3786 328.0489 Z" clip-path="url(#clipPath2)"/>
      <text x="699.4964" xml:space="preserve" y="332.7049" clip-path="url(#clipPath2)" font-family="sans-serif" stroke="none">Berdinak?</text>
    </g>
    <g fill="url(#linearGradient2)" text-rendering="geometricPrecision" shape-rendering="geometricPrecision" transform="matrix(1,0,0,1,-399,-57)" stroke="url(#linearGradient2)">
      <path d="M510.7253 414.267 Q544.3503 421.767 577.9753 414.267 Q611.6003 406.767 645.2253 414.267 L645.2253 436.767 Q611.6003 429.267 577.9753 436.767 Q544.3503 444.267 510.7253 436.767 Z" stroke="none" clip-path="url(#clipPath2)"/>
    </g>
    <g text-rendering="geometricPrecision" stroke-miterlimit="1.45" shape-rendering="geometricPrecision" transform="matrix(1,0,0,1,-399,-57)" stroke-linecap="butt">
      <path fill="none" d="M510.7253 414.267 Q544.3503 421.767 577.9753 414.267 Q611.6003 406.767 645.2253 414.267 L645.2253 436.767 Q611.6003 429.267 577.9753 436.767 Q544.3503 444.267 510.7253 436.767 Z" clip-path="url(#clipPath2)"/>
      <text x="523.285" xml:space="preserve" y="430.173" clip-path="url(#clipPath2)" font-family="sans-serif" stroke="none">Fitxategi ez aldatua</text>
    </g>
    <g fill="url(#linearGradient3)" text-rendering="geometricPrecision" shape-rendering="geometricPrecision" transform="matrix(1,0,0,1,-399,-57)" stroke="url(#linearGradient3)">
      <path d="M828.0517 414.267 Q862.9169 421.767 897.782 414.267 Q932.6473 406.767 967.5125 414.267 L967.5125 436.767 Q932.6473 429.267 897.782 436.767 Q862.9169 444.267 828.0517 436.767 Z" stroke="none" clip-path="url(#clipPath2)"/>
    </g>
    <g text-rendering="geometricPrecision" stroke-miterlimit="1.45" shape-rendering="geometricPrecision" transform="matrix(1,0,0,1,-399,-57)" stroke-linecap="butt">
      <path fill="none" d="M828.0517 414.267 Q862.9169 421.767 897.782 414.267 Q932.6473 406.767 967.5125 414.267 L967.5125 436.767 Q932.6473 429.267 897.782 436.767 Q862.9169 444.267 828.0517 436.767 Z" clip-path="url(#clipPath2)"/>
      <text x="850.8558" xml:space="preserve" y="430.173" clip-path="url(#clipPath2)" font-family="sans-serif" stroke="none">Fitxategi aldatua</text>
    </g>
    <g text-rendering="geometricPrecision" stroke-miterlimit="1.45" shape-rendering="geometricPrecision" transform="matrix(1,0,0,1,-399,-57)" stroke-linecap="butt">
      <rect fill="none" x="414.2253" width="273" height="30" y="72.0489" clip-path="url(#clipPath2)"/>
      <text x="422.1925" xml:space="preserve" y="91.7049" clip-path="url(#clipPath2)" font-family="sans-serif" stroke="none">eclipse-java-2026-06-R-linux-gtk-x86_64.tar.gz</text>
      <rect fill="none" x="722.4817" width="363.1004" height="30" y="72.0489" clip-path="url(#clipPath2)"/>
      <text x="726.0947" xml:space="preserve" y="91.7049" clip-path="url(#clipPath2)" font-family="sans-serif" stroke="none">7e30aeaf12270... eclipse-java-2026-06-R-linux-gtk-x86_64.tar.gz</text>
      <path fill="none" d="M550.7253 218.055 L550.7253 237.0489" clip-path="url(#clipPath2)"/>
      <path d="M550.7253 248.0489 L556.7253 236.0489 L544.7253 236.0489 Z" clip-path="url(#clipPath2)" stroke="none"/>
      <path fill="none" d="M550.7253 278.0489 L550.7253 328.0489 L676.3987 328.0489" clip-path="url(#clipPath2)"/>
      <path d="M687.3987 328.0489 L675.3987 322.0489 L675.3987 334.0489 Z" clip-path="url(#clipPath2)" stroke="none"/>
      <path fill="none" d="M904.0319 278.0489 L904.0319 328.0489 L778.3585 328.0489" clip-path="url(#clipPath2)"/>
      <path d="M767.3585 328.0489 L779.3585 334.0489 L779.3585 322.0489 Z" clip-path="url(#clipPath2)" stroke="none"/>
      <path fill="none" d="M710.0528 339.3519 L609.5343 404.9284" clip-path="url(#clipPath2)"/>
      <path d="M600.3215 410.9388 L613.6502 409.4072 L607.0934 399.3569 Z" clip-path="url(#clipPath2)" stroke="none"/>
      <text x="640.0308" xml:space="preserve" y="383.9389" clip-path="url(#clipPath2)" font-family="sans-serif" stroke="none">Bai</text>
      <path fill="none" d="M746.0581 338.7332 L873.0094 411.3474" clip-path="url(#clipPath2)"/>
      <path d="M882.5578 416.8089 L875.1204 405.6427 L869.1624 416.0591 Z" clip-path="url(#clipPath2)" stroke="none"/>
      <text x="809.8979" xml:space="preserve" y="383.4258" clip-path="url(#clipPath2)" font-family="sans-serif" stroke="none">Ez</text>
      <path fill="none" d="M550.7253 102.0489 L550.7253 152.0222" clip-path="url(#clipPath2)"/>
      <path d="M550.7253 163.0222 L556.7253 151.0222 L544.7253 151.0222 Z" clip-path="url(#clipPath2)" stroke="none"/>
      <path fill="none" d="M904.0319 102.0489 L904.0319 240.0489" clip-path="url(#clipPath2)"/>
      <path d="M904.0319 248.0489 L909.0319 236.0489 L904.0319 239.0489 L899.0319 236.0489 Z" clip-path="url(#clipPath2)" stroke="none"/>
    </g>
  </g>
</svg>
